<?xml version="1.0" standalone="no"?>
<!DOCTYPE svg PUBLIC "-//W3C//DTD SVG 20010904//EN"
 "http://www.w3.org/TR/2001/REC-SVG-20010904/DTD/svg10.dtd">
<svg version="1.0" xmlns="http://www.w3.org/2000/svg"
 width="511.000000pt" height="511.000000pt" viewBox="0 0 511.000000 511.000000"
 preserveAspectRatio="xMidYMid meet">
<metadata>
Created by potrace 1.11, written by Peter Selinger 2001-2013
</metadata>
<g transform="translate(0.000000,511.000000) scale(0.100000,-0.100000)"
fill="#000000" stroke="none">
<path d="M2460 3733 c-413 -39 -768 -275 -954 -633 -185 -355 -172 -807 33
-1148 189 -315 519 -530 871 -569 111 -12 299 -6 383 13 9 2 25 6 35 8 63 14
219 74 285 109 141 75 317 228 395 342 15 22 30 42 33 45 19 15 102 187 128
265 55 166 67 240 65 412 -6 428 -246 821 -625 1022 -65 35 -229 96 -284 107
-11 2 -36 7 -55 10 -19 4 -44 8 -55 10 -30 6 -215 11 -255 7z"/>
<path d="M360 3265 l0 -235 85 0 85 0 0 -695 0 -695 70 0 70 0 0 695 0 695 90
0 90 0 0 235 0 235 -35 0 -35 0 0 -195 0 -195 -30 0 -30 0 0 195 0 195 -30 0
-30 0 0 -195 0 -195 -50 0 -50 0 0 195 0 195 -30 0 -30 0 0 -195 0 -195 -40 0
-40 0 0 195 0 195 -30 0 -30 0 0 -235z"/>
<path d="M4280 2570 l0 -930 50 0 50 0 0 503 0 502 60 75 c66 82 113 170 129
240 6 25 9 108 8 185 -4 170 -16 204 -92 271 -78 68 -109 84 -160 84 l-45 0 0
-930z"/>
</g>
</svg>
