<?xml version="1.0" standalone="no"?><!-- Generator: Gravit.io --><svg xmlns="http://www.w3.org/2000/svg" xmlns:xlink="http://www.w3.org/1999/xlink" style="isolation:isolate" width="511" height="511"><circle vector-effect="non-scaling-stroke" cx="0" cy="0" r="1" fill="rgb(218,61,6)" transform="matrix(118.25,0,0,118.25,255.5,255.5)" stroke-width="1" stroke="rgba(0,0,0,0)"/><rect x="53" y="208.66666666666663" width="14" height="139" transform="matrix(1,0,0,1,0,0)" fill="rgb(240,131,66)" stroke-width="1" stroke="rgba(0,0,0,0)" stroke-linejoin="miter" stroke-linecap="square"/><rect x="36" y="200.66666666666669" width="49" height="8" transform="matrix(-1,0,0,-1,121,409.33333333333337)" fill="rgb(240,131,66)" stroke-width="1" stroke="rgba(0,0,0,0)" stroke-linejoin="miter" stroke-linecap="square"/><rect x="36" y="161.66666666666669" width="6.5" height="39" transform="matrix(1,0,0,1,0,0)" fill="rgb(240,131,66)" stroke-width="1" stroke="rgba(0,0,0,0)" stroke-linejoin="miter" stroke-linecap="square"/><rect x="78.5" y="161.66666666666669" width="6.5" height="39" transform="matrix(1,0,0,1,0,0)" fill="rgb(240,131,66)" stroke-width="1" stroke="rgba(0,0,0,0)" stroke-linejoin="miter" stroke-linecap="square"/><rect x="50" y="161.66666666666669" width="6.5" height="39" transform="matrix(1,0,0,1,0,0)" fill="rgb(240,131,66)" stroke-width="1" stroke="rgba(0,0,0,0)" stroke-linejoin="miter" stroke-linecap="square"/><rect x="66" y="161.66666666666669" width="6.5" height="39" transform="matrix(1,0,0,1,0,0)" fill="rgb(240,131,66)" stroke-width="1" stroke="rgba(0,0,0,0)" stroke-linejoin="miter" stroke-linecap="square"/><rect x="428" y="161.66666666666663" width="10" height="186" transform="matrix(1,0,0,1,0,0)" fill="rgb(241,76,134)" stroke-width="1" stroke="rgba(0,0,0,0)" stroke-linejoin="miter" stroke-linecap="square"/><path d=" M 428 162.99999999999994 C 437.96154400294915 159.67948533234994 443.65453830465873 165.98787163799201 449.33333333333337 171.66666666666663 C 457.4184636101309 175.7092318050654 457.33333333333337 191.46309326269017 457.33333333333337 197.66666666666663 C 457.33333333333337 208.70678649327772 457.38069606594075 215.57194120145223 453.33333333333337 223.66666666666663 C 449.73010318900356 230.87312695532592 446.38697813647053 235.94635519686278 442 240.3333333333333 C 441.7096763200373 240.623657013296 436 248.44152056367517 436 247.66666666666663 C 436 237.4444444444444 436 228.55555555555554 436 219.66666666666663 C 436 208.47099083630854 435.33333333333337 198.67646311691954 435.33333333333337 188.99999999999994 C 435.33333333333337 178.99999999999997 435.33333333333337 170.3333333333333 435.33333333333337 161.66666666666663 L 428 162.99999999999994 Z " fill="rgb(241,76,134)" stroke-width="1" stroke="rgb(241,76,134)" stroke-linejoin="miter" stroke-linecap="square"/><circle vector-effect="non-scaling-stroke" cx="0" cy="0" r="1" fill="rgb(243,205,104)" transform="matrix(86,0,0,86,255.5,255.5)" stroke-width="1" stroke="rgba(0,0,0,0)"/></svg>